<svg width="99" height="25" viewBox="0 0 99 25" fill="none" xmlns="http://www.w3.org/2000/svg">
<path d="M1.32324 11C1.32324 5.75701 5.60833 1.5 10.9026 1.5H88.3464C93.6406 1.5 97.9257 5.75701 97.9257 11C97.9257 16.243 93.6406 20.5 88.3464 20.5H10.9026C5.60835 20.5 1.32324 16.243 1.32324 11Z" fill="url(#paint0_linear_619_705)" stroke="#EFEFEF"/>
<path d="M17.4248 15.1252V6.98798H19.0547L20.498 10.9695C20.5892 11.2266 20.6763 11.492 20.7593 11.7658C20.8505 12.0312 20.9376 12.2966 21.0206 12.5621H21.0703C21.1616 12.2966 21.2487 12.0312 21.3316 11.7658C21.4146 11.492 21.4975 11.2266 21.5805 10.9695L22.9864 6.98798H24.6288V15.1252H23.2975V11.4049C23.2975 11.1478 23.3058 10.8699 23.3224 10.5713C23.3473 10.2644 23.3721 9.95751 23.397 9.6506C23.4302 9.3437 23.4592 9.06582 23.4841 8.81698H23.4344L22.7749 10.7082L21.4436 14.3662H20.5851L19.2413 10.7082L18.5944 8.81698H18.5446C18.5695 9.06582 18.5944 9.3437 18.6192 9.6506C18.6524 9.95751 18.6773 10.2644 18.6939 10.5713C18.7188 10.8699 18.7312 11.1478 18.7312 11.4049V15.1252H17.4248ZM29.0721 15.2745C28.5661 15.2745 28.0933 15.15 27.6537 14.9012C27.2141 14.6441 26.8574 14.2791 26.5837 13.8063C26.3099 13.3252 26.1731 12.7487 26.1731 12.0768C26.1731 11.3967 26.3099 10.8202 26.5837 10.3474C26.8574 9.86627 27.2141 9.5013 27.6537 9.25245C28.0933 8.99532 28.5661 8.86675 29.0721 8.86675C29.5864 8.86675 30.0633 8.99532 30.503 9.25245C30.9426 9.5013 31.2993 9.86627 31.573 10.3474C31.8467 10.8202 31.9836 11.3967 31.9836 12.0768C31.9836 12.7487 31.8467 13.3252 31.573 13.8063C31.2993 14.2791 30.9426 14.6441 30.503 14.9012C30.0633 15.15 29.5864 15.2745 29.0721 15.2745ZM29.0721 14.1049C29.52 14.1049 29.8726 13.9183 30.1297 13.545C30.3868 13.1717 30.5154 12.6823 30.5154 12.0768C30.5154 11.463 30.3868 10.9695 30.1297 10.5962C29.8726 10.2229 29.52 10.0363 29.0721 10.0363C28.6242 10.0363 28.2717 10.2229 28.0145 10.5962C27.7657 10.9695 27.6413 11.463 27.6413 12.0768C27.6413 12.6823 27.7657 13.1717 28.0145 13.545C28.2717 13.9183 28.6242 14.1049 29.0721 14.1049ZM35.5399 15.2745C34.7768 15.2745 34.1671 14.9924 33.7109 14.4284C33.2547 13.8643 33.0266 13.0805 33.0266 12.0768C33.0266 11.4132 33.1468 10.8409 33.3874 10.3598C33.6362 9.87871 33.9597 9.50959 34.3579 9.25245C34.756 8.99532 35.1749 8.86675 35.6145 8.86675C35.9629 8.86675 36.2574 8.92896 36.4979 9.05338C36.7468 9.16951 36.9873 9.33125 37.2196 9.53862L37.1698 8.55569V6.34099H38.6007V15.1252H37.4187L37.3191 14.4657H37.2693C37.0454 14.6897 36.7841 14.8805 36.4855 15.0381C36.1869 15.1957 35.8717 15.2745 35.5399 15.2745ZM35.8883 14.0925C36.3445 14.0925 36.7717 13.8643 37.1698 13.4081V10.5589C36.9624 10.3681 36.7551 10.2354 36.5477 10.1607C36.3403 10.0861 36.133 10.0488 35.9256 10.0488C35.5357 10.0488 35.1998 10.2271 34.9178 10.5838C34.6441 10.9321 34.5072 11.4257 34.5072 12.0644C34.5072 12.7197 34.6275 13.2215 34.868 13.5699C35.1086 13.9183 35.4486 14.0925 35.8883 14.0925ZM43.0357 15.2745C42.4717 15.2745 41.9615 15.15 41.5053 14.9012C41.0491 14.6441 40.6883 14.2791 40.4228 13.8063C40.1574 13.3252 40.0247 12.7487 40.0247 12.0768C40.0247 11.4132 40.1574 10.8409 40.4228 10.3598C40.6966 9.87871 41.0491 9.50959 41.4804 9.25245C41.9118 8.99532 42.3638 8.86675 42.8366 8.86675C43.3924 8.86675 43.8569 8.99117 44.2301 9.24001C44.6034 9.48056 44.8854 9.82065 45.0762 10.2603C45.267 10.6916 45.3624 11.1934 45.3624 11.7658C45.3624 12.0644 45.3416 12.2966 45.3002 12.4625H41.4182C41.4846 13.0017 41.6795 13.4206 42.003 13.7192C42.3265 14.0178 42.7329 14.1671 43.2223 14.1671C43.4878 14.1671 43.7325 14.1298 43.9564 14.0551C44.1887 13.9722 44.4168 13.8602 44.6407 13.7192L45.126 14.615C44.8357 14.8058 44.5122 14.9634 44.1555 15.0878C43.7988 15.2122 43.4256 15.2745 43.0357 15.2745ZM41.4058 11.492H44.1182C44.1182 11.0192 44.0145 10.6501 43.8071 10.3847C43.5997 10.111 43.2887 9.9741 42.874 9.9741C42.5173 9.9741 42.1979 10.1068 41.9159 10.3722C41.6422 10.6294 41.4721 11.0027 41.4058 11.492ZM48.1225 15.2745C47.6165 15.2745 47.2557 15.121 47.04 14.8141C46.8327 14.5072 46.729 14.0883 46.729 13.5574V6.34099H48.1598V13.6321C48.1598 13.8063 48.193 13.9307 48.2594 14.0054C48.3257 14.0717 48.3962 14.1049 48.4709 14.1049C48.5041 14.1049 48.5331 14.1049 48.558 14.1049C48.5912 14.0966 48.6368 14.0883 48.6948 14.08L48.8815 15.15C48.7985 15.1832 48.6907 15.2122 48.558 15.2371C48.4336 15.262 48.2884 15.2745 48.1225 15.2745ZM55.0612 15.2745C53.5806 15.2745 52.2618 14.1173 52.2618 12.1142C52.2618 10.0861 53.5806 8.92896 55.0612 8.92896C56.5419 8.92896 57.8607 10.0861 57.8607 12.1142C57.8607 14.1173 56.5419 15.2745 55.0612 15.2745ZM55.0612 14.4284C56.1064 14.4284 56.8031 13.4952 56.8031 12.1142C56.8031 10.7206 56.1064 9.77503 55.0612 9.77503C54.0285 9.77503 53.3193 10.7206 53.3193 12.1142C53.3193 13.4952 54.0285 14.4284 55.0612 14.4284ZM59.4532 15.1252V9.07826H60.2993L60.3864 9.94922H60.4237C60.9961 9.37688 61.6182 8.92896 62.4518 8.92896C63.7209 8.92896 64.2932 9.75014 64.2932 11.293V15.1252H63.273V11.4298C63.273 10.2976 62.9246 9.81235 62.1283 9.81235C61.5062 9.81235 61.0831 10.1358 60.4735 10.7455V15.1252H59.4532Z" fill="#2C3236"/>
<g filter="url(#filter0_d_619_705)">
<path d="M83.7221 15.1772C83.8422 15.5247 83.8134 15.8947 83.6533 16.2164C83.538 16.4513 83.3731 16.633 83.1714 16.7955C82.928 16.9886 82.6254 17.1526 82.2603 17.3103C81.8249 17.4969 81.2933 17.6722 81.0499 17.7366C80.4271 17.899 79.8283 18.002 79.2215 18.0068C78.3537 18.0149 77.606 17.809 77.0744 17.2829C76.799 17.3167 76.5205 17.336 76.2403 17.336C75.9745 17.336 75.7119 17.3199 75.4509 17.2878C74.9178 17.8106 74.1733 18.0149 73.3087 18.0068C72.7019 18.002 72.1031 17.899 71.4786 17.7366C71.2369 17.6722 70.7053 17.4969 70.2698 17.3103C69.9048 17.1526 69.6022 16.9886 69.3604 16.7955C69.1571 16.633 68.9922 16.4513 68.8769 16.2164C68.7184 15.8947 68.688 15.5247 68.8096 15.1772C68.6976 14.9118 68.6687 14.6078 68.7568 14.2715C68.7968 14.1187 68.8625 13.9772 68.9457 13.8517C68.9281 13.7857 68.9137 13.7182 68.9041 13.6442C68.8433 13.2034 68.9954 12.8012 69.282 12.4892C69.4229 12.3331 69.575 12.2254 69.7335 12.1562C69.6166 11.6575 69.5557 11.1443 69.5557 10.6199C69.5557 6.91038 72.5482 3.90382 76.2403 3.90382C77.5083 3.90382 78.6947 4.25772 79.7066 4.87544C79.8891 4.98805 80.0685 5.1087 80.2398 5.23739C80.3246 5.30173 80.4095 5.36769 80.4911 5.43686C80.5744 5.50442 80.6561 5.5752 80.7345 5.64759C80.9715 5.86476 81.194 6.09801 81.3974 6.34735C81.4662 6.4294 81.5319 6.51465 81.5959 6.60152C81.7256 6.77365 81.8457 6.95221 81.9561 7.1372C82.1243 7.41389 82.2716 7.70344 82.3996 8.00426C82.4845 8.20534 82.5581 8.41125 82.6238 8.62198C82.7215 8.93728 82.7967 9.26222 82.8479 9.59682C82.864 9.70782 82.8784 9.82042 82.8896 9.93303C82.912 10.1582 82.9248 10.3867 82.9248 10.6199C82.9248 11.1379 82.864 11.6462 82.7503 12.1369C82.9264 12.206 83.0929 12.3187 83.2482 12.4892C83.5348 12.8012 83.6869 13.205 83.6261 13.6458C83.6165 13.7182 83.6021 13.7857 83.5844 13.8517C83.6677 13.9772 83.7333 14.1187 83.7734 14.2715C83.8614 14.6078 83.8326 14.9118 83.7221 15.1772Z" fill="white"/>
<path d="M76.1902 16.21C79.263 16.21 81.754 13.7072 81.754 10.6199C81.754 7.53263 79.263 5.02988 76.1902 5.02988C73.1174 5.02988 70.6265 7.53263 70.6265 10.6199C70.6265 13.7072 73.1174 16.21 76.1902 16.21Z" fill="#FFD21E"/>
<path d="M81.7538 10.6199C81.7538 7.53265 79.2628 5.0299 76.19 5.0299C73.1173 5.0299 70.6263 7.53265 70.6263 10.6199C70.6263 13.7072 73.1173 16.21 76.19 16.21C79.2628 16.21 81.7538 13.7072 81.7538 10.6199ZM69.9858 10.6199C69.9858 7.17728 72.7636 4.38644 76.19 4.38644C79.6165 4.38644 82.3942 7.17728 82.3942 10.6199C82.3942 14.0626 79.6165 16.8535 76.19 16.8535C72.7636 16.8535 69.9858 14.0626 69.9858 10.6199Z" fill="#FF9D00"/>
<path d="M77.9979 9.09836C78.202 9.17075 78.2831 9.59221 78.4893 9.4821C78.8796 9.27355 79.0278 8.78653 78.8203 8.39432C78.6127 8.0021 78.128 7.8532 77.7376 8.06175C77.3472 8.27029 77.199 8.75731 77.4066 9.14953C77.5046 9.33465 77.8155 9.03365 77.9979 9.09836Z" fill="#32343D"/>
<path d="M74.2257 9.09836C74.0217 9.17075 73.9405 9.59221 73.7344 9.4821C73.344 9.27355 73.1958 8.78653 73.4034 8.39432C73.6109 8.0021 74.0957 7.8532 74.486 8.06175C74.8764 8.27029 75.0246 8.75731 74.817 9.14953C74.7191 9.33465 74.4081 9.03365 74.2257 9.09836Z" fill="#32343D"/>
<path d="M76.1503 12.9587C77.7239 12.9587 78.2317 11.5491 78.2317 10.8252C78.2317 10.449 77.98 10.5674 77.5768 10.768C77.2043 10.9533 76.7024 11.2087 76.1503 11.2087C75.0007 11.2087 74.0688 10.1013 74.0688 10.8252C74.0688 11.5491 74.5766 12.9587 76.1503 12.9587Z" fill="#32343D"/>
<mask id="mask0_619_705" style="mask-type:alpha" maskUnits="userSpaceOnUse" x="74" y="10" width="5" height="3">
<path d="M76.1503 12.9587C77.7239 12.9587 78.2317 11.5491 78.2317 10.8252C78.2317 10.449 77.98 10.5674 77.5768 10.768C77.2043 10.9533 76.7024 11.2087 76.1503 11.2087C75.0007 11.2087 74.0688 10.1013 74.0688 10.8252C74.0688 11.5491 74.5766 12.9587 76.1503 12.9587Z" fill="white"/>
</mask>
<g mask="url(#mask0_619_705)">
<path d="M76.1899 14.6013C76.9568 14.6013 77.5785 13.9767 77.5785 13.2061C77.5785 12.606 77.2013 12.0943 76.6721 11.8974C76.6527 11.8901 76.633 11.8833 76.6131 11.8769C76.4797 11.8341 76.3375 12.2949 76.1899 12.2949C76.052 12.2949 75.9188 11.8312 75.793 11.8688C75.2195 12.0403 74.8013 12.5742 74.8013 13.2061C74.8013 13.9767 75.423 14.6013 76.1899 14.6013Z" fill="#FF323D"/>
</g>
<g style="mix-blend-mode:multiply">
<path d="M79.9525 9.85584C80.2399 9.85584 80.4728 9.62177 80.4728 9.33303C80.4728 9.04429 80.2399 8.81022 79.9525 8.81022C79.6651 8.81022 79.4321 9.04429 79.4321 9.33303C79.4321 9.62177 79.6651 9.85584 79.9525 9.85584Z" fill="#FFD21E"/>
</g>
<g style="mix-blend-mode:multiply">
<path d="M72.5072 9.85584C72.7946 9.85584 73.0275 9.62177 73.0275 9.33303C73.0275 9.04429 72.7946 8.81022 72.5072 8.81022C72.2198 8.81022 71.9868 9.04429 71.9868 9.33303C71.9868 9.62177 72.2198 9.85584 72.5072 9.85584Z" fill="#FFD21E"/>
</g>
<path d="M71.4365 11.6254C71.1773 11.6254 70.9456 11.7323 70.7841 11.9263C70.6841 12.0465 70.5798 12.2402 70.5713 12.5302C70.4626 12.4988 70.358 12.4813 70.2603 12.4813C70.0122 12.4813 69.788 12.5769 69.6295 12.7504C69.4259 12.9732 69.3354 13.247 69.3748 13.521C69.3935 13.6514 69.4369 13.7684 69.5017 13.8767C69.365 13.9878 69.2643 14.1426 69.2156 14.3287C69.1775 14.4746 69.1385 14.7785 69.3424 15.0915C69.3295 15.1119 69.3173 15.1332 69.3059 15.1549C69.1833 15.3888 69.1754 15.6531 69.2837 15.8992C69.4478 16.2722 69.8556 16.5661 70.6475 16.8816C71.1401 17.0779 71.5908 17.2033 71.5948 17.2045C72.2462 17.3742 72.8352 17.4604 73.3451 17.4604C74.2824 17.4604 74.9534 17.172 75.3396 16.6031C75.9612 15.6872 75.8723 14.8494 75.0681 14.0419C74.623 13.595 74.3271 12.9361 74.2655 12.7915C74.1412 12.3632 73.8127 11.8872 73.2665 11.8872H73.2664C73.2204 11.8872 73.174 11.8909 73.1282 11.8982C72.889 11.936 72.6799 12.0743 72.5305 12.2825C72.3693 12.0811 72.2127 11.9209 72.071 11.8305C71.8574 11.6944 71.644 11.6254 71.4365 11.6254ZM71.4365 12.2688C71.5182 12.2688 71.6179 12.3037 71.7279 12.3739C72.0694 12.5915 72.7284 13.7296 72.9697 14.1723C73.0505 14.3206 73.1887 14.3834 73.3131 14.3834C73.56 14.3834 73.7528 14.1368 73.3357 13.8234C72.7086 13.3519 72.9285 12.5812 73.2279 12.5338C73.2411 12.5317 73.254 12.5307 73.2665 12.5307C73.5387 12.5307 73.6588 13.002 73.6588 13.002C73.6588 13.002 74.0107 13.89 74.6153 14.4969C75.2199 15.104 75.2511 15.5913 74.8105 16.2406C74.5099 16.6833 73.9347 16.8169 73.3451 16.8169C72.7337 16.8169 72.1069 16.6731 71.7556 16.5816C71.7383 16.5771 69.602 15.9708 69.8726 15.4547C69.918 15.368 69.993 15.3333 70.0873 15.3333C70.4683 15.3333 71.1614 15.9031 71.4594 15.9031C71.526 15.9031 71.5729 15.8746 71.5921 15.8051C71.7191 15.3474 69.6617 15.155 69.8351 14.4921C69.8657 14.3749 69.9486 14.3272 70.0652 14.3274C70.5687 14.3274 71.6984 15.2171 71.9352 15.2171C71.9533 15.2171 71.9663 15.2118 71.9733 15.2006C72.092 15.0082 72.027 14.8739 71.1907 14.3654C70.3545 13.8567 69.7675 13.5507 70.1014 13.1856C70.1398 13.1434 70.1942 13.1248 70.2603 13.1248C70.768 13.1249 71.9676 14.2217 71.9676 14.2217C71.9676 14.2217 72.2913 14.56 72.4871 14.56C72.5321 14.56 72.5704 14.5421 72.5963 14.4981C72.7351 14.2629 71.307 13.1754 71.2264 12.7268C71.1718 12.4228 71.2647 12.2688 71.4365 12.2688Z" fill="#FF9D00"/>
<path d="M74.8104 16.2405C75.2511 15.5913 75.2198 15.104 74.6153 14.4969C74.0107 13.89 73.6588 13.002 73.6588 13.002C73.6588 13.002 73.5273 12.4863 73.2279 12.5337C72.9285 12.5812 72.7087 13.3519 73.3358 13.8234C73.963 14.2947 73.211 14.615 72.9697 14.1723C72.7284 13.7296 72.0695 12.5915 71.7279 12.3738C71.3864 12.1562 71.1459 12.2781 71.2264 12.7268C71.307 13.1754 72.7353 14.2629 72.5963 14.4982C72.4573 14.7334 71.9676 14.2217 71.9676 14.2217C71.9676 14.2217 70.435 12.8204 70.1013 13.1856C69.7677 13.5507 70.3545 13.8567 71.1907 14.3653C72.0271 14.8738 72.092 15.0082 71.9733 15.2006C71.8545 15.393 70.0085 13.8292 69.8351 14.4921C69.6618 15.155 71.7191 15.3474 71.5921 15.8051C71.4651 16.2629 70.143 14.9388 69.8725 15.4547C69.602 15.9708 71.7383 16.5771 71.7556 16.5816C72.4456 16.7614 74.1982 17.1425 74.8104 16.2405Z" fill="#FFD21E"/>
<path d="M81.024 11.6254C81.2832 11.6254 81.5148 11.7323 81.6764 11.9263C81.7763 12.0465 81.8807 12.2402 81.8892 12.5302C81.9979 12.4988 82.1024 12.4813 82.2001 12.4813C82.4483 12.4813 82.6724 12.5769 82.8309 12.7504C83.0346 12.9732 83.1251 13.247 83.0857 13.521C83.0669 13.6514 83.0235 13.7684 82.9587 13.8767C83.0954 13.9878 83.1961 14.1426 83.2448 14.3287C83.2829 14.4746 83.322 14.7785 83.118 15.0915C83.131 15.1119 83.1431 15.1332 83.1545 15.1549C83.2772 15.3888 83.285 15.6531 83.1768 15.8992C83.0127 16.2722 82.6049 16.5661 81.813 16.8816C81.3203 17.0779 80.8696 17.2033 80.8656 17.2045C80.2143 17.3742 79.6252 17.4604 79.1153 17.4604C78.178 17.4604 77.507 17.172 77.1208 16.6031C76.4993 15.6872 76.5882 14.8494 77.3924 14.0419C77.8375 13.595 78.1334 12.9361 78.195 12.7915C78.3192 12.3632 78.6478 11.8872 79.1939 11.8872H79.1941C79.24 11.8872 79.2865 11.8909 79.3322 11.8982C79.5715 11.936 79.7806 12.0743 79.9299 12.2825C80.0912 12.0811 80.2477 11.9209 80.3894 11.8305C80.603 11.6944 80.8165 11.6254 81.024 11.6254ZM81.024 12.2688C80.9423 12.2688 80.8426 12.3037 80.7326 12.3739C80.391 12.5915 79.732 13.7296 79.4908 14.1723C79.4099 14.3206 79.2717 14.3834 79.1473 14.3834C78.9004 14.3834 78.7077 14.1368 79.1247 13.8234C79.7519 13.3519 79.5319 12.5812 79.2325 12.5338C79.2194 12.5317 79.2064 12.5307 79.1939 12.5307C78.9217 12.5307 78.8016 13.002 78.8016 13.002C78.8016 13.002 78.4497 13.89 77.8452 14.4969C77.2406 15.104 77.2094 15.5913 77.65 16.2406C77.9505 16.6833 78.5258 16.8169 79.1153 16.8169C79.7268 16.8169 80.3536 16.6731 80.7049 16.5816C80.7222 16.5771 82.8585 15.9708 82.5879 15.4547C82.5424 15.368 82.4675 15.3333 82.3732 15.3333C81.9921 15.3333 81.299 15.9031 81.0011 15.9031C80.9345 15.9031 80.8875 15.8746 80.8683 15.8051C80.7414 15.3474 82.7988 15.155 82.6254 14.4921C82.5948 14.3749 82.5118 14.3272 82.3953 14.3274C81.8917 14.3274 80.762 15.2171 80.5252 15.2171C80.5071 15.2171 80.4942 15.2118 80.4871 15.2006C80.3685 15.0082 80.4335 14.8739 81.2697 14.3654C82.106 13.8567 82.6929 13.5507 82.3591 13.1856C82.3207 13.1434 82.2662 13.1248 82.2001 13.1248C81.6924 13.1249 80.4929 14.2217 80.4929 14.2217C80.4929 14.2217 80.1691 14.56 79.9733 14.56C79.9283 14.56 79.8901 14.5421 79.8641 14.4981C79.7253 14.2629 81.1535 13.1754 81.234 12.7268C81.2886 12.4228 81.1958 12.2688 81.024 12.2688Z" fill="#FF9D00"/>
<path d="M77.6495 16.2405C77.2089 15.5913 77.2401 15.104 77.8447 14.4969C78.4493 13.89 78.8012 13.002 78.8012 13.002C78.8012 13.002 78.9326 12.4863 79.232 12.5337C79.5314 12.5812 79.7513 13.3519 79.1241 13.8234C78.497 14.2947 79.249 14.615 79.4903 14.1723C79.7316 13.7296 80.3904 12.5915 80.7321 12.3738C81.0736 12.1562 81.3141 12.2781 81.2335 12.7268C81.153 13.1754 79.7247 14.2629 79.8637 14.4982C80.0026 14.7334 80.4924 14.2217 80.4924 14.2217C80.4924 14.2217 82.025 12.8204 82.3586 13.1856C82.6923 13.5507 82.1055 13.8567 81.2692 14.3653C80.4328 14.8738 80.368 15.0082 80.4866 15.2006C80.6054 15.393 82.4515 13.8292 82.6249 14.4921C82.7981 15.155 80.7409 15.3474 80.8679 15.8051C80.9948 16.2629 82.317 14.9388 82.5874 15.4547C82.858 15.9708 80.7217 16.5771 80.7044 16.5816C80.0143 16.7614 78.2618 17.1425 77.6495 16.2405Z" fill="#FFD21E"/>
</g>
<defs>
<filter id="filter0_d_619_705" x="63.6268" y="-0.00257158" width="25.2767" height="24.2599" filterUnits="userSpaceOnUse" color-interpolation-filters="sRGB">
<feFlood flood-opacity="0" result="BackgroundImageFix"/>
<feColorMatrix in="SourceAlpha" type="matrix" values="0 0 0 0 0 0 0 0 0 0 0 0 0 0 0 0 0 0 127 0" result="hardAlpha"/>
<feOffset dy="1.17192"/>
<feGaussianBlur stdDeviation="2.53915"/>
<feColorMatrix type="matrix" values="0 0 0 0 0 0 0 0 0 0 0 0 0 0 0 0 0 0 0.1 0"/>
<feBlend mode="normal" in2="BackgroundImageFix" result="effect1_dropShadow_619_705"/>
<feBlend mode="normal" in="SourceGraphic" in2="effect1_dropShadow_619_705" result="shape"/>
</filter>
<linearGradient id="paint0_linear_619_705" x1="0.823242" y1="11" x2="71.5726" y2="11" gradientUnits="userSpaceOnUse">
<stop stop-color="#F5F9FA"/>
<stop offset="1" stop-color="white"/>
</linearGradient>
</defs>
</svg>
